<svg id="Gradient" height="30" viewBox="0 0 512 512" width="30" xmlns="http://www.w3.org/2000/svg" xmlns:xlink="http://www.w3.org/1999/xlink"><linearGradient id="linear-gradient" gradientUnits="userSpaceOnUse" x1="260" x2="260" y1="496" y2="16"><stop offset="0" stop-color="#27bde2"/><stop offset=".5" stop-color="#be75e5"/><stop offset="1" stop-color="#ee515d"/></linearGradient><path d="m440 480c-13.551 0-32.761-8.526-45.353-17.7 5.714-9.155 12.965-22.857 13.327-37.141.021-.385.026-.777.026-1.158a24 24 0 0 0 -48 0c0 .381 0 .773.026 1.158.367 14.474 7.807 28.352 13.554 37.5-10.354 9.441-19.78 17.341-37.58 17.341s-27.226-7.9-37.58-17.338c5.747-9.153 13.187-23.031 13.554-37.5.021-.385.026-.777.026-1.158a24 24 0 0 0 -48 0c0 .381 0 .773.026 1.158.362 14.285 7.612 27.987 13.327 37.141-12.592 9.171-31.802 17.697-45.353 17.697-16.583 0-30.692-6.314-40.8-18.259-8.317-9.825-13.448-23.02-14.814-37.741h39.614a24.027 24.027 0 0 0 24-24v-90.611a23.977 23.977 0 0 0 -19.77-23.624l-16.461-2.948a23.977 23.977 0 0 1 -19.769-23.624v-78.386a23.977 23.977 0 0 1 19.769-23.624l16.462-2.948a23.977 23.977 0 0 0 19.769-23.624v-90.611a24.027 24.027 0 0 0 -24-24h-40a104.118 104.118 0 0 0 -104 104v200a104.164 104.164 0 0 0 88.241 102.808c1.261 19.035 7.794 36.336 18.743 49.271 13.058 15.421 31.886 23.921 53.016 23.921 17.779 0 40.719-10.264 55.7-21.454 11.355 10.339 24.529 21.454 48.3 21.454s36.945-11.115 48.3-21.454c14.981 11.19 37.921 21.454 55.7 21.454a8 8 0 0 0 0-16zm-216-170.611v90.611a8.009 8.009 0 0 1 -8 8h-8v-108.171l9.41 1.685a7.993 7.993 0 0 1 6.59 7.875zm0-269.389v90.611a7.993 7.993 0 0 1 -6.59 7.875l-9.41 1.685v-108.171h8a8.009 8.009 0 0 1 8 8zm-136 280v-200a88.1 88.1 0 0 1 88-88h16v112.146a39.957 39.957 0 0 0 -24 36.661v78.386a39.96 39.96 0 0 0 24 36.662v112.145h-16a88.1 88.1 0 0 1 -88-88zm200 96a8.009 8.009 0 0 1 8 8v.229c-.01.139-.017.278-.02.418-.18 8.332-4 17.108-7.982 24.232-3.982-7.124-7.8-15.9-7.982-24.232 0-.14-.006-.219-.016-.358 0-.1 0-.194 0-.289a8.009 8.009 0 0 1 8-8zm96 0a8.009 8.009 0 0 1 8 8v.229c-.01.139-.017.278-.02.418-.18 8.332-4 17.108-7.982 24.232-3.982-7.124-7.8-15.9-7.982-24.232 0-.14-.006-.219-.016-.358 0-.1 0-.194 0-.289a8.009 8.009 0 0 1 8-8zm-63.837-95.837a135.983 135.983 0 0 0 0-192.326 8 8 0 0 1 11.314-11.314 151.984 151.984 0 0 1 0 214.954 8 8 0 0 1 -11.314-11.314zm103.837-96.163a198.692 198.692 0 0 0 -58.577-141.423 8 8 0 0 1 11.314-11.314 216.009 216.009 0 0 1 0 305.474 8 8 0 0 1 -11.314-11.314 198.692 198.692 0 0 0 58.577-141.423zm-149.089 50.915a72.006 72.006 0 0 0 0-101.83 8 8 0 1 1 11.318-11.31 88.008 88.008 0 0 1 0 124.45 8 8 0 0 1 -11.318-11.31z" fill="url(#linear-gradient)"/></svg>